M48
; DRILL file {KiCad (5.1.6)-1} date 08/02/20 10:54:34
; FORMAT={-:-/ absolute / inch / decimal}
; #@! TF.CreationDate,2020-08-02T10:54:34-04:00
; #@! TF.GenerationSoftware,Kicad,Pcbnew,(5.1.6)-1
; #@! TF.FileFunction,Plated,1,2,PTH
FMAT,2
INCH
T1C0.0315
T2C0.0433
T3C0.0630
T4C0.1181
%
G90
G05
T1
X5.4Y-3.975
X5.8Y-3.975
X4.15Y-3.975
X4.55Y-3.975
T2
X4.2Y-3.725
X4.2902Y-3.725
X4.3803Y-3.725
X5.575Y-3.725
X5.6652Y-3.725
X5.7553Y-3.725
T3
X4.975Y-3.45
X4.975Y-3.95
T4
X5.8Y-4.25
X5.525Y-4.25
X5.25Y-4.25
X4.425Y-4.25
X4.7Y-4.25
X4.6Y-3.45
X5.35Y-3.45
X4.15Y-4.25
X4.975Y-4.25
T0
M30
