%TF.GenerationSoftware,KiCad,Pcbnew,(5.1.6)-1*%
%TF.CreationDate,2020-08-02T10:54:23-04:00*%
%TF.ProjectId,Fogger_Power_CTRL,466f6767-6572-45f5-906f-7765725f4354,rev?*%
%TF.SameCoordinates,Original*%
%TF.FileFunction,Legend,Top*%
%TF.FilePolarity,Positive*%
%FSLAX46Y46*%
G04 Gerber Fmt 4.6, Leading zero omitted, Abs format (unit mm)*
G04 Created by KiCad (PCBNEW (5.1.6)-1) date 2020-08-02 10:54:23*
%MOMM*%
%LPD*%
G01*
G04 APERTURE LIST*
%ADD10C,0.150000*%
%ADD11C,0.120000*%
G04 APERTURE END LIST*
D10*
X145796190Y-111688571D02*
X145462857Y-111688571D01*
X145462857Y-112212380D02*
X145462857Y-111212380D01*
X145939047Y-111212380D01*
X146081904Y-112307619D02*
X146843809Y-112307619D01*
X147653333Y-112117142D02*
X147605714Y-112164761D01*
X147462857Y-112212380D01*
X147367619Y-112212380D01*
X147224761Y-112164761D01*
X147129523Y-112069523D01*
X147081904Y-111974285D01*
X147034285Y-111783809D01*
X147034285Y-111640952D01*
X147081904Y-111450476D01*
X147129523Y-111355238D01*
X147224761Y-111260000D01*
X147367619Y-111212380D01*
X147462857Y-111212380D01*
X147605714Y-111260000D01*
X147653333Y-111307619D01*
X147939047Y-111212380D02*
X148510476Y-111212380D01*
X148224761Y-112212380D02*
X148224761Y-111212380D01*
X149320000Y-112212380D02*
X148843809Y-112212380D01*
X148843809Y-111212380D01*
X139858809Y-111688571D02*
X139525476Y-111688571D01*
X139525476Y-112212380D02*
X139525476Y-111212380D01*
X140001666Y-111212380D01*
X140382619Y-111831428D02*
X141144523Y-111831428D01*
X132873809Y-111688571D02*
X132540476Y-111688571D01*
X132540476Y-112212380D02*
X132540476Y-111212380D01*
X133016666Y-111212380D01*
X133397619Y-111831428D02*
X134159523Y-111831428D01*
X133778571Y-112212380D02*
X133778571Y-111450476D01*
X124626904Y-111688571D02*
X124769761Y-111736190D01*
X124817380Y-111783809D01*
X124865000Y-111879047D01*
X124865000Y-112021904D01*
X124817380Y-112117142D01*
X124769761Y-112164761D01*
X124674523Y-112212380D01*
X124293571Y-112212380D01*
X124293571Y-111212380D01*
X124626904Y-111212380D01*
X124722142Y-111260000D01*
X124769761Y-111307619D01*
X124817380Y-111402857D01*
X124817380Y-111498095D01*
X124769761Y-111593333D01*
X124722142Y-111640952D01*
X124626904Y-111688571D01*
X124293571Y-111688571D01*
X125245952Y-111926666D02*
X125722142Y-111926666D01*
X125150714Y-112212380D02*
X125484047Y-111212380D01*
X125817380Y-112212380D01*
X126007857Y-111212380D02*
X126579285Y-111212380D01*
X126293571Y-112212380D02*
X126293571Y-111212380D01*
X126769761Y-111212380D02*
X127341190Y-111212380D01*
X127055476Y-112212380D02*
X127055476Y-111212380D01*
X127674523Y-111831428D02*
X128436428Y-111831428D01*
X128055476Y-112212380D02*
X128055476Y-111450476D01*
X118427619Y-112212380D02*
X118427619Y-111212380D01*
X118760952Y-111926666D01*
X119094285Y-111212380D01*
X119094285Y-112212380D01*
X119570476Y-111831428D02*
X120332380Y-111831428D01*
X119951428Y-112212380D02*
X119951428Y-111450476D01*
X111442619Y-112212380D02*
X111442619Y-111212380D01*
X111775952Y-111926666D01*
X112109285Y-111212380D01*
X112109285Y-112212380D01*
X112585476Y-111831428D02*
X113347380Y-111831428D01*
X103410000Y-112212380D02*
X103410000Y-111212380D01*
X103743333Y-111926666D01*
X104076666Y-111212380D01*
X104076666Y-112212380D01*
X104314761Y-112307619D02*
X105076666Y-112307619D01*
X105886190Y-112117142D02*
X105838571Y-112164761D01*
X105695714Y-112212380D01*
X105600476Y-112212380D01*
X105457619Y-112164761D01*
X105362380Y-112069523D01*
X105314761Y-111974285D01*
X105267142Y-111783809D01*
X105267142Y-111640952D01*
X105314761Y-111450476D01*
X105362380Y-111355238D01*
X105457619Y-111260000D01*
X105600476Y-111212380D01*
X105695714Y-111212380D01*
X105838571Y-111260000D01*
X105886190Y-111307619D01*
X106171904Y-111212380D02*
X106743333Y-111212380D01*
X106457619Y-112212380D02*
X106457619Y-111212380D01*
X107552857Y-112212380D02*
X107076666Y-112212380D01*
X107076666Y-111212380D01*
X134786904Y-91368571D02*
X134929761Y-91416190D01*
X134977380Y-91463809D01*
X135025000Y-91559047D01*
X135025000Y-91701904D01*
X134977380Y-91797142D01*
X134929761Y-91844761D01*
X134834523Y-91892380D01*
X134453571Y-91892380D01*
X134453571Y-90892380D01*
X134786904Y-90892380D01*
X134882142Y-90940000D01*
X134929761Y-90987619D01*
X134977380Y-91082857D01*
X134977380Y-91178095D01*
X134929761Y-91273333D01*
X134882142Y-91320952D01*
X134786904Y-91368571D01*
X134453571Y-91368571D01*
X135405952Y-91606666D02*
X135882142Y-91606666D01*
X135310714Y-91892380D02*
X135644047Y-90892380D01*
X135977380Y-91892380D01*
X136167857Y-90892380D02*
X136739285Y-90892380D01*
X136453571Y-91892380D02*
X136453571Y-90892380D01*
X136929761Y-90892380D02*
X137501190Y-90892380D01*
X137215476Y-91892380D02*
X137215476Y-90892380D01*
X137834523Y-91511428D02*
X138596428Y-91511428D01*
X116078095Y-90940000D02*
X115982857Y-90892380D01*
X115840000Y-90892380D01*
X115697142Y-90940000D01*
X115601904Y-91035238D01*
X115554285Y-91130476D01*
X115506666Y-91320952D01*
X115506666Y-91463809D01*
X115554285Y-91654285D01*
X115601904Y-91749523D01*
X115697142Y-91844761D01*
X115840000Y-91892380D01*
X115935238Y-91892380D01*
X116078095Y-91844761D01*
X116125714Y-91797142D01*
X116125714Y-91463809D01*
X115935238Y-91463809D01*
X116554285Y-91892380D02*
X116554285Y-90892380D01*
X117125714Y-91892380D01*
X117125714Y-90892380D01*
X117601904Y-91892380D02*
X117601904Y-90892380D01*
X117840000Y-90892380D01*
X117982857Y-90940000D01*
X118078095Y-91035238D01*
X118125714Y-91130476D01*
X118173333Y-91320952D01*
X118173333Y-91463809D01*
X118125714Y-91654285D01*
X118078095Y-91749523D01*
X117982857Y-91844761D01*
X117840000Y-91892380D01*
X117601904Y-91892380D01*
D11*
%TO.C,D1*%
X121695000Y-97285000D02*
X131035000Y-97285000D01*
X121695000Y-97045000D02*
X131035000Y-97045000D01*
X121695000Y-97165000D02*
X131035000Y-97165000D01*
X131035000Y-89310000D02*
X128205000Y-89310000D01*
X131035000Y-98650000D02*
X131035000Y-89310000D01*
X128205000Y-98650000D02*
X131035000Y-98650000D01*
X121695000Y-89310000D02*
X124525000Y-89310000D01*
X121695000Y-98650000D02*
X121695000Y-89310000D01*
X124525000Y-98650000D02*
X121695000Y-98650000D01*
%TO.C,Q1*%
X105560000Y-92235000D02*
X112380000Y-92235000D01*
X105560000Y-84995000D02*
X105969000Y-84995000D01*
X111971000Y-84995000D02*
X112380000Y-84995000D01*
X105560000Y-84995000D02*
X105560000Y-92235000D01*
X112380000Y-84995000D02*
X112380000Y-92235000D01*
X106680000Y-92235000D02*
X106680000Y-93565000D01*
X108970000Y-92235000D02*
X108970000Y-93565000D01*
X111260000Y-92235000D02*
X111260000Y-93565000D01*
%TO.C,Q2*%
X146185000Y-92235000D02*
X146185000Y-93565000D01*
X143895000Y-92235000D02*
X143895000Y-93565000D01*
X141605000Y-92235000D02*
X141605000Y-93565000D01*
X147305000Y-84995000D02*
X147305000Y-92235000D01*
X140485000Y-84995000D02*
X140485000Y-92235000D01*
X146896000Y-84995000D02*
X147305000Y-84995000D01*
X140485000Y-84995000D02*
X140894000Y-84995000D01*
X140485000Y-92235000D02*
X147305000Y-92235000D01*
%TO.C,R1*%
X107220000Y-99595000D02*
X107220000Y-102335000D01*
X107220000Y-102335000D02*
X113760000Y-102335000D01*
X113760000Y-102335000D02*
X113760000Y-99595000D01*
X113760000Y-99595000D02*
X107220000Y-99595000D01*
X106450000Y-100965000D02*
X107220000Y-100965000D01*
X114530000Y-100965000D02*
X113760000Y-100965000D01*
%TO.C,R2*%
X146280000Y-100965000D02*
X145510000Y-100965000D01*
X138200000Y-100965000D02*
X138970000Y-100965000D01*
X145510000Y-99595000D02*
X138970000Y-99595000D01*
X145510000Y-102335000D02*
X145510000Y-99595000D01*
X138970000Y-102335000D02*
X145510000Y-102335000D01*
X138970000Y-99595000D02*
X138970000Y-102335000D01*
%TO.C,D1*%
D10*
X121147380Y-94718095D02*
X120147380Y-94718095D01*
X120147380Y-94480000D01*
X120195000Y-94337142D01*
X120290238Y-94241904D01*
X120385476Y-94194285D01*
X120575952Y-94146666D01*
X120718809Y-94146666D01*
X120909285Y-94194285D01*
X121004523Y-94241904D01*
X121099761Y-94337142D01*
X121147380Y-94480000D01*
X121147380Y-94718095D01*
X121147380Y-93194285D02*
X121147380Y-93765714D01*
X121147380Y-93480000D02*
X120147380Y-93480000D01*
X120290238Y-93575238D01*
X120385476Y-93670476D01*
X120433095Y-93765714D01*
X124217380Y-100591904D02*
X123217380Y-100591904D01*
X124217380Y-100020476D02*
X123645952Y-100449047D01*
X123217380Y-100020476D02*
X123788809Y-100591904D01*
%TO.C,J1*%
X126031666Y-104002380D02*
X126031666Y-104716666D01*
X125984047Y-104859523D01*
X125888809Y-104954761D01*
X125745952Y-105002380D01*
X125650714Y-105002380D01*
X127031666Y-105002380D02*
X126460238Y-105002380D01*
X126745952Y-105002380D02*
X126745952Y-104002380D01*
X126650714Y-104145238D01*
X126555476Y-104240476D01*
X126460238Y-104288095D01*
%TO.C,J2*%
X135556666Y-83682380D02*
X135556666Y-84396666D01*
X135509047Y-84539523D01*
X135413809Y-84634761D01*
X135270952Y-84682380D01*
X135175714Y-84682380D01*
X135985238Y-83777619D02*
X136032857Y-83730000D01*
X136128095Y-83682380D01*
X136366190Y-83682380D01*
X136461428Y-83730000D01*
X136509047Y-83777619D01*
X136556666Y-83872857D01*
X136556666Y-83968095D01*
X136509047Y-84110952D01*
X135937619Y-84682380D01*
X136556666Y-84682380D01*
%TO.C,J3*%
X116506666Y-83682380D02*
X116506666Y-84396666D01*
X116459047Y-84539523D01*
X116363809Y-84634761D01*
X116220952Y-84682380D01*
X116125714Y-84682380D01*
X116887619Y-83682380D02*
X117506666Y-83682380D01*
X117173333Y-84063333D01*
X117316190Y-84063333D01*
X117411428Y-84110952D01*
X117459047Y-84158571D01*
X117506666Y-84253809D01*
X117506666Y-84491904D01*
X117459047Y-84587142D01*
X117411428Y-84634761D01*
X117316190Y-84682380D01*
X117030476Y-84682380D01*
X116935238Y-84634761D01*
X116887619Y-84587142D01*
%TO.C,J4*%
X105076666Y-104002380D02*
X105076666Y-104716666D01*
X105029047Y-104859523D01*
X104933809Y-104954761D01*
X104790952Y-105002380D01*
X104695714Y-105002380D01*
X105981428Y-104335714D02*
X105981428Y-105002380D01*
X105743333Y-103954761D02*
X105505238Y-104669047D01*
X106124285Y-104669047D01*
%TO.C,J5*%
X119046666Y-104002380D02*
X119046666Y-104716666D01*
X118999047Y-104859523D01*
X118903809Y-104954761D01*
X118760952Y-105002380D01*
X118665714Y-105002380D01*
X119999047Y-104002380D02*
X119522857Y-104002380D01*
X119475238Y-104478571D01*
X119522857Y-104430952D01*
X119618095Y-104383333D01*
X119856190Y-104383333D01*
X119951428Y-104430952D01*
X119999047Y-104478571D01*
X120046666Y-104573809D01*
X120046666Y-104811904D01*
X119999047Y-104907142D01*
X119951428Y-104954761D01*
X119856190Y-105002380D01*
X119618095Y-105002380D01*
X119522857Y-104954761D01*
X119475238Y-104907142D01*
%TO.C,J6*%
X112061666Y-104002380D02*
X112061666Y-104716666D01*
X112014047Y-104859523D01*
X111918809Y-104954761D01*
X111775952Y-105002380D01*
X111680714Y-105002380D01*
X112966428Y-104002380D02*
X112775952Y-104002380D01*
X112680714Y-104050000D01*
X112633095Y-104097619D01*
X112537857Y-104240476D01*
X112490238Y-104430952D01*
X112490238Y-104811904D01*
X112537857Y-104907142D01*
X112585476Y-104954761D01*
X112680714Y-105002380D01*
X112871190Y-105002380D01*
X112966428Y-104954761D01*
X113014047Y-104907142D01*
X113061666Y-104811904D01*
X113061666Y-104573809D01*
X113014047Y-104478571D01*
X112966428Y-104430952D01*
X112871190Y-104383333D01*
X112680714Y-104383333D01*
X112585476Y-104430952D01*
X112537857Y-104478571D01*
X112490238Y-104573809D01*
%TO.C,J7*%
X146986666Y-104002380D02*
X146986666Y-104716666D01*
X146939047Y-104859523D01*
X146843809Y-104954761D01*
X146700952Y-105002380D01*
X146605714Y-105002380D01*
X147367619Y-104002380D02*
X148034285Y-104002380D01*
X147605714Y-105002380D01*
%TO.C,J8*%
X133016666Y-104002380D02*
X133016666Y-104716666D01*
X132969047Y-104859523D01*
X132873809Y-104954761D01*
X132730952Y-105002380D01*
X132635714Y-105002380D01*
X133635714Y-104430952D02*
X133540476Y-104383333D01*
X133492857Y-104335714D01*
X133445238Y-104240476D01*
X133445238Y-104192857D01*
X133492857Y-104097619D01*
X133540476Y-104050000D01*
X133635714Y-104002380D01*
X133826190Y-104002380D01*
X133921428Y-104050000D01*
X133969047Y-104097619D01*
X134016666Y-104192857D01*
X134016666Y-104240476D01*
X133969047Y-104335714D01*
X133921428Y-104383333D01*
X133826190Y-104430952D01*
X133635714Y-104430952D01*
X133540476Y-104478571D01*
X133492857Y-104526190D01*
X133445238Y-104621428D01*
X133445238Y-104811904D01*
X133492857Y-104907142D01*
X133540476Y-104954761D01*
X133635714Y-105002380D01*
X133826190Y-105002380D01*
X133921428Y-104954761D01*
X133969047Y-104907142D01*
X134016666Y-104811904D01*
X134016666Y-104621428D01*
X133969047Y-104526190D01*
X133921428Y-104478571D01*
X133826190Y-104430952D01*
%TO.C,J9*%
X140001666Y-104002380D02*
X140001666Y-104716666D01*
X139954047Y-104859523D01*
X139858809Y-104954761D01*
X139715952Y-105002380D01*
X139620714Y-105002380D01*
X140525476Y-105002380D02*
X140715952Y-105002380D01*
X140811190Y-104954761D01*
X140858809Y-104907142D01*
X140954047Y-104764285D01*
X141001666Y-104573809D01*
X141001666Y-104192857D01*
X140954047Y-104097619D01*
X140906428Y-104050000D01*
X140811190Y-104002380D01*
X140620714Y-104002380D01*
X140525476Y-104050000D01*
X140477857Y-104097619D01*
X140430238Y-104192857D01*
X140430238Y-104430952D01*
X140477857Y-104526190D01*
X140525476Y-104573809D01*
X140620714Y-104621428D01*
X140811190Y-104621428D01*
X140906428Y-104573809D01*
X140954047Y-104526190D01*
X141001666Y-104430952D01*
%TO.C,Q1*%
X108874761Y-83509286D02*
X108779523Y-83461667D01*
X108684285Y-83366428D01*
X108541428Y-83223571D01*
X108446190Y-83175952D01*
X108350952Y-83175952D01*
X108398571Y-83414047D02*
X108303333Y-83366428D01*
X108208095Y-83271190D01*
X108160476Y-83080714D01*
X108160476Y-82747381D01*
X108208095Y-82556905D01*
X108303333Y-82461667D01*
X108398571Y-82414047D01*
X108589047Y-82414047D01*
X108684285Y-82461667D01*
X108779523Y-82556905D01*
X108827142Y-82747381D01*
X108827142Y-83080714D01*
X108779523Y-83271190D01*
X108684285Y-83366428D01*
X108589047Y-83414047D01*
X108398571Y-83414047D01*
X109779523Y-83414047D02*
X109208095Y-83414047D01*
X109493809Y-83414047D02*
X109493809Y-82414047D01*
X109398571Y-82556905D01*
X109303333Y-82652143D01*
X109208095Y-82699762D01*
%TO.C,Q2*%
X143799761Y-83509286D02*
X143704523Y-83461667D01*
X143609285Y-83366428D01*
X143466428Y-83223571D01*
X143371190Y-83175952D01*
X143275952Y-83175952D01*
X143323571Y-83414047D02*
X143228333Y-83366428D01*
X143133095Y-83271190D01*
X143085476Y-83080714D01*
X143085476Y-82747381D01*
X143133095Y-82556905D01*
X143228333Y-82461667D01*
X143323571Y-82414047D01*
X143514047Y-82414047D01*
X143609285Y-82461667D01*
X143704523Y-82556905D01*
X143752142Y-82747381D01*
X143752142Y-83080714D01*
X143704523Y-83271190D01*
X143609285Y-83366428D01*
X143514047Y-83414047D01*
X143323571Y-83414047D01*
X144133095Y-82509286D02*
X144180714Y-82461667D01*
X144275952Y-82414047D01*
X144514047Y-82414047D01*
X144609285Y-82461667D01*
X144656904Y-82509286D01*
X144704523Y-82604524D01*
X144704523Y-82699762D01*
X144656904Y-82842619D01*
X144085476Y-83414047D01*
X144704523Y-83414047D01*
%TO.C,R1*%
X110323333Y-99047380D02*
X109990000Y-98571190D01*
X109751904Y-99047380D02*
X109751904Y-98047380D01*
X110132857Y-98047380D01*
X110228095Y-98095000D01*
X110275714Y-98142619D01*
X110323333Y-98237857D01*
X110323333Y-98380714D01*
X110275714Y-98475952D01*
X110228095Y-98523571D01*
X110132857Y-98571190D01*
X109751904Y-98571190D01*
X111275714Y-99047380D02*
X110704285Y-99047380D01*
X110990000Y-99047380D02*
X110990000Y-98047380D01*
X110894761Y-98190238D01*
X110799523Y-98285476D01*
X110704285Y-98333095D01*
%TO.C,R2*%
X142073333Y-99047380D02*
X141740000Y-98571190D01*
X141501904Y-99047380D02*
X141501904Y-98047380D01*
X141882857Y-98047380D01*
X141978095Y-98095000D01*
X142025714Y-98142619D01*
X142073333Y-98237857D01*
X142073333Y-98380714D01*
X142025714Y-98475952D01*
X141978095Y-98523571D01*
X141882857Y-98571190D01*
X141501904Y-98571190D01*
X142454285Y-98142619D02*
X142501904Y-98095000D01*
X142597142Y-98047380D01*
X142835238Y-98047380D01*
X142930476Y-98095000D01*
X142978095Y-98142619D01*
X143025714Y-98237857D01*
X143025714Y-98333095D01*
X142978095Y-98475952D01*
X142406666Y-99047380D01*
X143025714Y-99047380D01*
%TD*%
M02*
